<svg xmlns="http://www.w3.org/2000/svg" width="137" height="137" viewBox="0 0 137 137">
  <g id="Group_135" data-name="Group 135" transform="translate(-1291.661 -3169)">
    <g id="Ellipse_5" data-name="Ellipse 5" transform="translate(1291.661 3169)" fill="#fff" stroke="#d4af65" stroke-width="3">
      <circle cx="68.5" cy="68.5" r="68.5" stroke="none"/>
      <circle cx="68.5" cy="68.5" r="67" fill="none"/>
    </g>
    <g id="couple-2192254" transform="translate(1301.208 3185.104)">
      <g id="Group_114" data-name="Group 114" transform="translate(13.452 10.447)">
        <path id="Path_8777" data-name="Path 8777" d="M83.436,60.433c.5-.443,1.3-1,2.213-1.634,6.492-4.527,20-13.944,8.866-35.087-5.551-10.54-13.606-13.022-19.386-13.247-9.134-.371-18.636,4.8-21.8,9.826-.029.037-.093.107-.18.205C48.6,25.58,49.13,29.182,50.37,31.309c1.49,2.554,2.738,3.841,3.814,3.935a1.087,1.087,0,0,0,.955-.339l.332-.417-.414-.333a1.2,1.2,0,0,1-.168-.194,8.58,8.58,0,0,0,.742.645c.172,2.084-2.248,5.344-3.788,6.7-1.409,1.246-1.478,2.205-.266,3.664.192.231.392.445.586.652.661.7,1.138,1.211,1.07,2.1l-.037.425c-.1,1.011-.219,2.243,1.178,2.843a3.83,3.83,0,0,0,1.037,3.139c.2.28.4.569.588.878a1.575,1.575,0,0,1-.046.933,3.326,3.326,0,0,0-.1,1.3,4.7,4.7,0,0,1,.039.807,3.49,3.49,0,0,0,.22,1.545c.789,1.64,2.959,1.991,5.951.972.163-.056.359-.127.578-.206,1.151-.42,3.846-1.4,4.6-.733a1.532,1.532,0,0,1,.339.843c.022.105.044.208.066.3A11.985,11.985,0,0,1,64.5,71.071C59.777,75.79,58.172,91.58,58.105,92.25l-.135,1.375,1.01-.943c.229-.213,22.948-21.353,30.12-19.009l.36-.977c-4.016-1.65-6.61-3.736-7.5-6.031a4.348,4.348,0,0,1-.079-3.248Z" transform="translate(-8.502 -10.447)" fill="#d4af65"/>
        <path id="Path_8778" data-name="Path 8778" d="M42.992,69.819a1.494,1.494,0,0,1,.057-.9c.527-.95,3.58-.922,4.891-.906.246,0,.47,0,.651,0,3.339-.032,5.375-1.142,5.585-3.044a3.7,3.7,0,0,0-.324-1.61,4.867,4.867,0,0,1-.248-.829c-.017-.105-.028-.183-.037-.242a1.833,1.833,0,0,0,.173-.528l.08-.386c.293-1.392.268-1.733-.612-2.766,1.158-1.077.61-2.252.16-3.217l-.19-.412a2.885,2.885,0,0,1,.333-2.5c.122-.277.246-.56.356-.856.692-1.868.288-2.794-1.54-3.535a15.816,15.816,0,0,1-3.469-2.067c-.005-.051-.011-.107-.019-.177-1.1-10.425-6.647-16.032-15.573-15.758-7.442.22-13.787,3.189-17.863,8.359-5.147,6.531-6.563,16.227-4.091,28.039C14.67,82.523,28.507,85.492,39.625,87.877c5.757,1.236,10.731,2.3,13.107,4.9l.686.752.207-1C55.905,81.621,52.031,73.5,42.992,69.819Z" transform="translate(-10.129 -9.636)" fill="#d4af65"/>
      </g>
    </g>
  </g>
</svg>
