<svg xmlns="http://www.w3.org/2000/svg" width="137" height="137" viewBox="0 0 137 137">
  <g id="Group_134" data-name="Group 134" transform="translate(-891.661 -3169)">
    <g id="Ellipse_4" data-name="Ellipse 4" transform="translate(891.661 3169)" fill="#fff" stroke="#d4af65" stroke-width="3">
      <circle cx="68.5" cy="68.5" r="68.5" stroke="none"/>
      <circle cx="68.5" cy="68.5" r="67" fill="none"/>
    </g>
    <g id="events-5426877" transform="translate(834.938 3151.351)">
      <path id="Path_8776" data-name="Path 8776" d="M101.025,61.265l2.072,9.2,9.485.85a1.46,1.46,0,0,1,1.33,1.614,1.43,1.43,0,0,1-.719,1.134l-8.2,4.841,2.115,9.289a1.482,1.482,0,0,1-2.42,1.439l-7.152-6.3L89.36,88.218a1.482,1.482,0,0,1-2.028-.5,1.556,1.556,0,0,1-.065-1.418l3.751-8.678L83.843,71.34a1.484,1.484,0,0,1-.131-2.094,1.462,1.462,0,0,1,1.243-.5l9.485.894L98.192,60.9a1.471,1.471,0,0,1,1.941-.785,1.585,1.585,0,0,1,.893,1.154Zm44.833,59.073a1.481,1.481,0,1,1,2.551-1.5,3.445,3.445,0,0,0,3.053,1.941,2.472,2.472,0,0,0,1.112-.349,2.4,2.4,0,0,0,.85-.894c.676-1.2.654-3.14-.85-5.648a8.507,8.507,0,0,1-.981-6.018,7.143,7.143,0,0,1,1.57-3.206,5.673,5.673,0,0,1,3.271-1.81,8.989,8.989,0,0,1,6.15,1.5,8.8,8.8,0,0,0,3.99,1.461,1.74,1.74,0,0,0,1.156-.327,1.931,1.931,0,0,0,.545-1.2,9.669,9.669,0,0,0-.7-4.557,11.8,11.8,0,0,1-.719-5.648,6.156,6.156,0,0,1,1.962-3.772,6.329,6.329,0,0,1,3.838-1.548,10.806,10.806,0,0,1,5.255,1.091,1.483,1.483,0,0,1-1.221,2.7,8.3,8.3,0,0,0-3.816-.829,3.416,3.416,0,0,0-2.094.807,3.215,3.215,0,0,0-1,2.006,8.9,8.9,0,0,0,.589,4.209,12.631,12.631,0,0,1,.829,6.018,4.792,4.792,0,0,1-1.5,2.922,4.509,4.509,0,0,1-3.184,1.069,11.353,11.353,0,0,1-5.43-1.875,6.408,6.408,0,0,0-4.121-1.134,2.675,2.675,0,0,0-1.57.872,3.912,3.912,0,0,0-.872,1.81,5.623,5.623,0,0,0,.632,3.9c2.115,3.576,2.006,6.608.85,8.635a5.86,5.86,0,0,1-1.853,1.941,5.5,5.5,0,0,1-2.464.807,6.261,6.261,0,0,1-5.822-3.38Zm-73.4-26.8a1.475,1.475,0,1,1,1.832,2.311,3.361,3.361,0,0,0-1.5,3.292,2.6,2.6,0,0,0,.5,1.046,2.634,2.634,0,0,0,1,.719c1.265.523,3.206.218,5.474-1.592a8.483,8.483,0,0,1,5.822-1.788,6.8,6.8,0,0,1,3.38,1.134,5.652,5.652,0,0,1,2.225,2.987,9.009,9.009,0,0,1-.654,6.3,9,9,0,0,0-.916,4.143,1.655,1.655,0,0,0,.48,1.112,2.034,2.034,0,0,0,1.265.392,9.537,9.537,0,0,0,4.426-1.308,11.912,11.912,0,0,1,5.495-1.483,6.149,6.149,0,0,1,3.991,1.439,6.28,6.28,0,0,1,2.05,3.6,10.771,10.771,0,0,1-.37,5.364,1.49,1.49,0,0,1-2.857-.85,8.005,8.005,0,0,0,.3-3.9,3.519,3.519,0,0,0-1.069-1.962,3.27,3.27,0,0,0-2.137-.719,8.715,8.715,0,0,0-4.1,1.156,12.694,12.694,0,0,1-5.866,1.635,4.927,4.927,0,0,1-3.118-1.112,4.545,4.545,0,0,1-1.5-3.009,11.419,11.419,0,0,1,1.112-5.626,6.2,6.2,0,0,0,.567-4.252,2.689,2.689,0,0,0-1.069-1.439,3.715,3.715,0,0,0-1.919-.611,5.577,5.577,0,0,0-3.772,1.156c-3.271,2.595-6.281,2.9-8.439,2.006a5.441,5.441,0,0,1-2.159-1.57A5.309,5.309,0,0,1,69.8,99.776a6.554,6.554,0,0,1,2.66-6.237ZM119.43,62.2a1.472,1.472,0,1,1,2.944-.022,93.694,93.694,0,0,0,1.439,14.632,175.952,175.952,0,0,0,4.056,17.75,1.484,1.484,0,0,1-2.857.806,171.383,171.383,0,0,1-4.121-18.034A97.153,97.153,0,0,1,119.43,62.2Zm4.71-26.43a1.474,1.474,0,0,0-2.813-.327l-3.751,8.744-9.485-.894a1.44,1.44,0,0,0-1.243.5,1.484,1.484,0,0,0,.131,2.094l7.174,6.281L110.4,60.851a1.435,1.435,0,0,0,.065,1.418,1.463,1.463,0,0,0,2.028.5l8.177-4.885,7.152,6.3a1.481,1.481,0,0,0,1.308.327,1.456,1.456,0,0,0,1.112-1.766l-2.115-9.289,8.2-4.841a1.481,1.481,0,0,0-.611-2.748l-9.485-.85Zm12.757,53.4c-2.551,3.511-4.71,8.548-6.477,15.177a159.252,159.252,0,0,0-4.078,24.139,1.479,1.479,0,0,0,2.944.284,159.51,159.51,0,0,1,3.991-23.7c1.657-6.259,3.663-10.968,6-14.174a1.468,1.468,0,1,0-2.377-1.723Zm3.467-10.86-8.657,3.947a1.5,1.5,0,0,0-.742,1.962,1.431,1.431,0,0,0,1.069.829l9.333,1.853,1.091,9.464a1.489,1.489,0,0,0,1.635,1.308,1.531,1.531,0,0,0,1.177-.829l4.6-8.243,9.333,1.875a1.486,1.486,0,0,0,1.745-1.156,1.5,1.5,0,0,0-.37-1.287L154.1,81.064l4.667-8.308a1.5,1.5,0,0,0-.567-2.028,1.446,1.446,0,0,0-1.4-.022l-8.592,3.969-6.455-7a1.482,1.482,0,0,0-2.094-.087,1.412,1.412,0,0,0-.458,1.265Zm-30.55,5.823c2.137,2.311,4.972,8.2,7.217,15.678a84.635,84.635,0,0,1,3.576,20.585,1.473,1.473,0,0,0,2.944-.109,86.671,86.671,0,0,0-3.707-21.327c-2.377-7.894-5.474-14.24-7.894-16.856a1.5,1.5,0,0,0-2.094-.087,1.571,1.571,0,0,0-.043,2.115Z" transform="translate(0 0)" fill="#d4af65" fill-rule="evenodd"/>
    </g>
  </g>
</svg>
