<svg xmlns="http://www.w3.org/2000/svg" width="136.643" height="136.643" viewBox="0 0 136.643 136.643">
  <path id="restaurant-3659739" d="M143.921,5.6a68.321,68.321,0,1,0,68.321,68.321A68.343,68.343,0,0,0,143.921,5.6Zm0,2.848A65.474,65.474,0,1,1,78.448,73.918,65.45,65.45,0,0,1,143.921,8.446Zm27.324,20.887h0a1.423,1.423,0,0,0-.977.429L154.733,45.3a13.319,13.319,0,0,0-3.188,14.9L141.2,69.842l-10.024-9.266a12.823,12.823,0,0,0,1.486-7.95V52.62c-.878-5.772-5.137-10.05-9.448-13.042l-.011,0-.011-.011c-4.492-3-9.892-5.342-15.626-5.068-3.688.109-7.437,2.313-8.575,6.134-1.488,4.82-.048,9.761,1.792,13.882l.021.031c2.428,5.118,6.1,10.068,11.414,12.829a13.058,13.058,0,0,0,12.292-.093l9,9.739Q118,91.479,102.478,105.939h0l-.032.031-.011.011-.048.048-.016.016a7.349,7.349,0,0,0,10.421,10.365c.027-.025.053-.052.078-.078l.048-.048.016-.016,28.544-30.623,28.372,30.69.031.032.011.016s.016.011.016.016l.048.048a7.348,7.348,0,0,0,10.407-10.376c-.024-.032-.051-.063-.078-.093l-.016-.011-.032-.031L149.249,77.292,158.6,67.255a13.285,13.285,0,0,0,14.117-2.425h0l.031-.032c5.452-5.4,10.856-10.846,16.282-16.257a1.425,1.425,0,1,0-2.012-2.017c-5.423,5.41-10.814,10.844-16.245,16.225a10.557,10.557,0,0,1-11.641,1.613h0a1.422,1.422,0,0,0-.8-.279h-.016a1.424,1.424,0,0,0-1.3.7l-9.863,10.583-3.869-3.576,10.963-10.217h0a1.424,1.424,0,0,0,.184-1.91A10.611,10.611,0,0,1,156.654,47.4l.048-.048,15.58-15.58h0a1.423,1.423,0,0,0-1.035-2.442Zm-27.324,4.735c-1.375,0-2.733.078-4.072.206s-2.662.337-3.959.6a39.337,39.337,0,0,0-3.82.984q-1.873.582-3.663,1.341h0a1.424,1.424,0,1,0,1.11,2.621q1.66-.7,3.4-1.244a36.7,36.7,0,0,1,7.219-1.473c1.244-.124,2.507-.192,3.786-.192a37.3,37.3,0,0,1,7.46.752q1.806.369,3.545.912h0a1.423,1.423,0,1,0,.845-2.716q-1.873-.582-3.82-.984a39.82,39.82,0,0,0-3.957-.6,39.155,39.155,0,0,0-4.073-.206Zm33.267,1.209h0a1.423,1.423,0,0,0-.976.431L160.38,51.538a1.424,1.424,0,1,0,2.013,2.013l15.832-15.832a1.423,1.423,0,0,0-1.037-2.444ZM108.6,37.323c4.556.048,9.072,1.991,12.994,4.605,3.977,2.762,7.546,6.521,8.246,11.121a10.189,10.189,0,0,1-1.556,6.826v0a1.481,1.481,0,0,0,.373,2.257l49.61,45.86a4.5,4.5,0,1,1-6.372,6.357L125.937,64.63h0a1.445,1.445,0,0,0-2.161-.249,10.283,10.283,0,0,1-10.236.474l0,0-.011,0c-4.543-2.356-7.888-6.754-10.143-11.5l0-.011c-1.714-3.841-2.837-8.1-1.669-11.881l0-.011v-.011c.719-2.431,3.338-4.03,5.949-4.107l.016,0h.016c.3-.016.608-.016.912-.016Zm73.453,2.822h0a1.421,1.421,0,0,0-.979.43l-15.83,15.832a1.424,1.424,0,1,0,2.011,2.013L183.09,42.588a1.423,1.423,0,0,0-1.034-2.443Zm12.978,10.728v0a1.423,1.423,0,0,0-1.275,2,54.347,54.347,0,0,1,0,42.1,1.424,1.424,0,1,0,2.618,1.117,57.106,57.106,0,0,0,0-44.332,1.424,1.424,0,0,0-1.343-.882ZM180.593,61.053v0a1.424,1.424,0,0,0-1.33,1.864,36.773,36.773,0,0,1,1.473,7.221c.124,1.244.192,2.506.192,3.784a37.149,37.149,0,0,1-.753,7.46q-.371,1.806-.912,3.545c-.361,1.158-.775,2.294-1.244,3.4s-.99,2.185-1.559,3.234-1.189,2.067-1.853,3.051h0a1.424,1.424,0,1,0,2.36,1.593q1.074-1.59,2-3.284t1.68-3.485q.756-1.789,1.338-3.663t.984-3.82a40.171,40.171,0,0,0,.809-8.032,38.123,38.123,0,0,0-.206-4.073c-.14-1.339-.338-2.66-.6-3.958a39.407,39.407,0,0,0-.984-3.82v0a1.425,1.425,0,0,0-1.387-1.019Zm-74.339,3.681h0a1.425,1.425,0,0,0-1.379,1.156,39.7,39.7,0,0,0-.808,8.031,38.911,38.911,0,0,0,.2,4.074q.21,2.009.6,3.958t.98,3.82q.582,1.873,1.341,3.663t1.679,3.485h0a1.423,1.423,0,1,0,2.5-1.36q-.853-1.571-1.558-3.234t-1.244-3.4a36.476,36.476,0,0,1-.912-3.545,37.039,37.039,0,0,1-.561-3.673c-.124-1.244-.192-2.508-.192-3.787a37.208,37.208,0,0,1,.753-7.46,1.422,1.422,0,0,0-1.409-1.727ZM135.435,79.1l4.1,4.435Q125.168,98.948,110.8,114.358a4.5,4.5,0,1,1-6.353-6.375L135.434,79.1ZM192.714,98.94h0a1.421,1.421,0,0,0-1.234.761c-.832,1.528-1.735,3.02-2.709,4.461a1.424,1.424,0,1,0,2.36,1.593q1.536-2.276,2.852-4.695a1.423,1.423,0,0,0-1.268-2.12ZM125.6,106.28h0a1.424,1.424,0,0,0-.679,2.683q1.694.919,3.484,1.679t3.663,1.341a39.991,39.991,0,0,0,11.852,1.792,38.121,38.121,0,0,0,4.073-.206q2.009-.21,3.957-.6t3.82-.98q1.873-.582,3.663-1.341a1.424,1.424,0,1,0-1.107-2.623q-1.66.7-3.4,1.244a36.774,36.774,0,0,1-7.221,1.473c-1.244.124-2.506.192-3.784.192a37.168,37.168,0,0,1-7.46-.753q-1.806-.369-3.545-.912t-3.4-1.244q-1.66-.7-3.234-1.556h0a1.428,1.428,0,0,0-.681-.182Z" transform="translate(-75.6 -5.598)" fill="#d4af65"/>
</svg>
